<mxfile host="65bd71144e">
    <diagram id="gziD8xkmLnJ7-4qihYpY" name="第 1 页">
        <mxGraphModel dx="396" dy="1394" grid="1" gridSize="1" guides="1" tooltips="1" connect="1" arrows="1" fold="1" page="1" pageScale="1" pageWidth="827" pageHeight="1169" math="0" shadow="0">
            <root>
                <mxCell id="0"/>
                <mxCell id="1" parent="0"/>
                <mxCell id="2" value="" style="rounded=0;whiteSpace=wrap;html=1;" vertex="1" parent="1">
                    <mxGeometry x="15" y="120" width="441" height="264" as="geometry"/>
                </mxCell>
                <mxCell id="3" value="公网浏览器" style="rounded=0;whiteSpace=wrap;html=1;" vertex="1" parent="1">
                    <mxGeometry x="37" y="20" width="380" height="44" as="geometry"/>
                </mxCell>
                <mxCell id="4" value="浏览器" style="text;html=1;align=center;verticalAlign=middle;resizable=0;points=[];autosize=1;strokeColor=none;fillColor=none;" vertex="1" parent="1">
                    <mxGeometry x="42" y="-5" width="55" height="27" as="geometry"/>
                </mxCell>
                <mxCell id="5" value="程序入口" style="rounded=0;whiteSpace=wrap;html=1;" vertex="1" parent="1">
                    <mxGeometry x="23" y="136" width="91" height="25" as="geometry"/>
                </mxCell>
                <mxCell id="7" value="" style="rounded=0;whiteSpace=wrap;html=1;" vertex="1" parent="1">
                    <mxGeometry x="22" y="173" width="92" height="204" as="geometry"/>
                </mxCell>
                <mxCell id="8" value="cli&lt;br&gt;start -f xx.cnf" style="rounded=0;whiteSpace=wrap;html=1;" vertex="1" parent="1">
                    <mxGeometry x="31" y="184" width="71" height="27" as="geometry"/>
                </mxCell>
                <mxCell id="9" value="response&lt;br&gt;http返回" style="rounded=0;whiteSpace=wrap;html=1;" vertex="1" parent="1">
                    <mxGeometry x="32.5" y="276" width="71" height="27" as="geometry"/>
                </mxCell>
                <mxCell id="10" value="exception&lt;br&gt;业务异常" style="rounded=0;whiteSpace=wrap;html=1;" vertex="1" parent="1">
                    <mxGeometry x="33" y="308" width="71" height="27" as="geometry"/>
                </mxCell>
                <mxCell id="13" style="edgeStyle=none;html=1;exitX=0.5;exitY=1;exitDx=0;exitDy=0;entryX=0.5;entryY=0;entryDx=0;entryDy=0;" edge="1" parent="1" source="11" target="12">
                    <mxGeometry relative="1" as="geometry"/>
                </mxCell>
                <mxCell id="11" value="conf&lt;br&gt;程序配置" style="rounded=0;whiteSpace=wrap;html=1;" vertex="1" parent="1">
                    <mxGeometry x="33" y="340" width="71" height="27" as="geometry"/>
                </mxCell>
                <mxCell id="12" value="" style="shape=image;editableCssRules=.*;verticalLabelPosition=bottom;labelBackgroundColor=default;verticalAlign=top;aspect=fixed;imageAspect=0;image=data:image/svg+xml,PHN2ZyB4bWxucz0iaHR0cDovL3d3dy53My5vcmcvMjAwMC9zdmciIHZpZXdCb3g9Ii0wLjUgLTAuNSAyNS44NjcgMjgiIGhlaWdodD0iMjgiIHdpZHRoPSIyNS44NjciPiYjeGE7CSAgPHN0eWxlIHR5cGU9InRleHQvY3NzIj4uc3QwIHsgc3RvcC1jb2xvcjogcmdiKDM1LCAxNDksIDI1NSk7IH0gLnN0MSB7IHN0b3AtY29sb3I6IHJnYigwLCA4NywgMjEwKTsgfSA8L3N0eWxlPiYjeGE7CTxkZWZzPiYjeGE7CQk8bGluZWFyR3JhZGllbnQgZ3JhZGllbnRVbml0cz0idXNlclNwYWNlT25Vc2UiIHkyPSIyMy42MTMiIHgyPSIyMy4yMjciIHkxPSIzLjQ3NCIgeDE9IjEuODQ2IiBpZD0iQSI+JiN4YTsJCQk8c3RvcCBjbGFzcz0ic3QwIi8+JiN4YTsJCQk8c3RvcCBjbGFzcz0ic3QxIiBvZmZzZXQ9IjEiLz4mI3hhOwkJPC9saW5lYXJHcmFkaWVudD4mI3hhOwk8L2RlZnM+JiN4YTsJPHBhdGggZmlsbD0idXJsKCNBKSIgZD0iTTEzLjM5IDI3LjVoLTEuOTE1Yy0uNjU2IDAtMS4yNTctLjIxOS0xLjgwMy0uNjU2YTIuNDYgMi40NiAwIDAgMS0uOTMxLTEuNTg1bC0uMzgzLTEuODA0LTIuMzUtMS40MjMtMS42NDEuNzFhMy42MSAzLjYxIDAgMCAxLTEuMDQuMTY1Yy0uNTA5IDAtMS4wMDMtLjEyOC0xLjQ3Ny0uMzgzLS40NTItLjI3MS0uODEzLS42NzEtMS4wMzgtMS4xNDhsLTEuMDM5LTIuMDIzYy0uMTY5LS4zNzktLjI2Mi0uNzg5LS4yNzMtMS4yMDRhMi43NSAyLjc1IDAgMCAxIDEuMTQ4LTIuMjk2bDEuMjU4LS45Mjl2LTIuODQ1bC0xLjMxMi0uOTgzQy0uMTM2IDEwLjU0Ni0uNSA5Ljc5OS0uNSA4Ljg1MmMwLS4zNjYuMDkxLS43NjcuMjczLTEuMjA0bDEuMDQtMi4wMjNjLjI1NS0uNTExLjYtLjg5MyAxLjAzOC0xLjE0OC40NzQtLjI1NS45NjgtLjM4MyAxLjQ3Ny0uMzgzLjQwMiAwIC43NDcuMDc0IDEuMDQuMjE5bDEuNjQxLjY1NiAyLjM1LTEuNDIzLjM4My0xLjgwMkEyLjY4IDIuNjggMCAwIDEgOS43MjcuMTU2YTIuNjEgMi42MSAwIDAgMSAxLjc1LS42NTZoMS45MTNhMi42MSAyLjYxIDAgMCAxIDEuNzUuNjU2Yy41MTEuNDAzLjg0LjkyOS45ODUgMS41ODZsLjMyNyAxLjgwNiAyLjQwNiAxLjQyMSAxLjY0Mi0uNjU2Yy4yOTEtLjE0NS42MzctLjIxOSAxLjA0LS4yMTlhMi43NyAyLjc3IDAgMCAxIDEuNDIxLjM4M2MuNDczLjI1NS44NC42MzcgMS4wOTQgMS4xNDhsLjk4NSAyLjAyM2MuMjE3LjM2Ni4zMjcuNzg0LjMyNyAxLjI1OCAwIC45MS0uMzgzIDEuNjQyLTEuMTQ4IDIuMTg4bC0xLjMxMi45ODV2Mi44NDRsMS4zMTMuOTI4Yy43NjUuNTg1IDEuMTQ4IDEuMzMyIDEuMTQ4IDIuMjQzIDAgLjQzOC0uMTEuODU4LS4zMjkgMS4yNThsLS45ODMgMi4wMjNjLS4yNTYuNTExLS42MTkuODkyLTEuMDk0IDEuMTQ4LS40MzcuMjU2LS45MS4zODMtMS40MjMuMzgzLS4zNjQgMC0uNzEtLjA1NC0xLjAzOC0uMTY1bC0xLjY0Mi0uNzEtMi40MDYgMS40MjMtLjMyNyAxLjgwMmMtLjE0Ny42NTgtLjQ3NCAxLjE4Ni0uOTg1IDEuNTg3YTIuNjEgMi42MSAwIDAgMS0xLjc1LjY1NnptLTcuMzgzLTguMjU4Yy40NzQgMCAuOTQ5LjE0NyAxLjQyMy40MzhsMi40MDYgMS40MjNjLjczLjQzOCAxLjE0OCAxLjA0IDEuMjU4IDEuODA0bC4zODIgMS44MDRoMS45MTVsLjMyOS0xLjgwNGMuMTgyLS44MDIuNjItMS40MDQgMS4zMTMtMS44MDRsMi4zNTItMS40MjNhMy4wNiAzLjA2IDAgMCAxIDEuNTI5LS40MzdjLjE4NCAwIC4zNDYuMDE3LjQ5NC4wNTRhNC4xNyA0LjE3IDAgMCAxIC40OTIuMTY1bDEuNjQyLjY1Ni45ODMtMi4wMjMtMS4yNTgtLjkyOWMtLjc2NS0uNTg0LTEuMTQ4LTEuMzMtMS4xNDgtMi4yNDJ2LTIuODQ1YzAtLjkxLjM4My0xLjY1NyAxLjE0OC0yLjI0bDEuMjU4LS45MzEtLjk4NS0yLjAyMy0xLjY0LjcxYy0uMzM1LjExMS0uNjg2LjE2Ni0xLjA0LjE2NS0uNTgzIDAtMS4wNzUtLjEyOC0xLjQ3Ny0uMzgzbC0yLjM1LTEuNDc3YTIuNjggMi42OCAwIDAgMS0xLjMxMi0xLjgwNEwxMy4zOSAyLjI5aC0xLjkxNWwtLjM4MiAxLjgwNGMtLjExLjc2Ni0uNTI4IDEuMzY3LTEuMjU4IDEuODA0TDcuNDgzIDcuMzc1Yy0uNDAxLjI1NS0uODkzLjM4My0xLjQ3NS4zODMtLjMyOSAwLS42OTMtLjA1Ni0xLjA5NC0uMTY1bC0xLjY0MS0uNzEtLjk4NSAyLjAyMyAxLjMxMy45MjljLjc2Ny41ODUgMS4xNSAxLjMzIDEuMTUgMi4yNDR2Mi44NDRjMCAuOTEtLjM4MyAxLjY1Ny0xLjE0OCAyLjI0bC0xLjMxMi45MzEgMS4wMzggMi4wMjMgMS42NDEtLjY1NmMuMjktLjE0NS42MzctLjIxOSAxLjA0LS4yMTl6bTYuNC0uMTY1YTUuNTcgNS41NyAwIDAgMS0yLjE4Ny0uNDM3Yy0uNjUzLS4yODktMS4yNDYtLjY5Ny0xLjc1LTEuMjAyYTUuNzcgNS43NyAwIDAgMS0xLjIwNC0xLjc1IDUuNTggNS41OCAwIDAgMS0uNDM3LTIuMTg3IDUuMjEgNS4yMSAwIDAgMSAuNDM4LTIuMTMzYy4yOTItLjY5My42OTMtMS4yOTUgMS4yMDQtMS44MDRzMS4wOTQtLjkxIDEuNzUtMS4yMDRhNS42IDUuNiAwIDAgMSAyLjE4OC0uNDM3Yy43NjUgMCAxLjQ5NS4xNDcgMi4xODguNDM4czEuMjk1LjY5MyAxLjgwNCAxLjIwNC45MSAxLjExMSAxLjIwNCAxLjgwNGMuMjkxLjY1Ni40MzggMS4zNjguNDM4IDIuMTMzYTUuNiA1LjYgMCAwIDEtLjQzNyAyLjE4OGMtLjI5LjY1My0uNjk4IDEuMjQ2LTEuMjA0IDEuNzUtLjUxMS41MTEtMS4xMTEuOTEtMS44MDQgMS4yMDRzLTEuNDIzLjQzNi0yLjE4Ny40MzZ6bTAtOC4zNjVjLS43NjcgMC0xLjQyMy4yNzEtMS45NjkuODE5LS4yNjQuMjU1LS40NzMuNTYxLS42MTQuODk5cy0uMjExLjcwMy0uMjA2IDEuMDY5YzAgLjc2Ny4yNzMgMS40MjMuODIxIDEuOTY5czEuMjAyLjgyMSAxLjk2OS44MjFjLjgwMiAwIDEuNDc3LS4yNzMgMi4wMjMtLjgyMXMuODIxLTEuMjA0LjgyMS0xLjk2OS0uMjczLTEuNDIzLS44MjEtMS45NjlhMi43NSAyLjc1IDAgMCAwLS45MjctLjYyYy0uMzQ4LS4xNDEtLjcyMS0uMjA4LTEuMDk2LS4xOTl6Ii8+JiN4YTs8L3N2Zz4=;" vertex="1" parent="1">
                    <mxGeometry x="56.5" y="411" width="26" height="28" as="geometry"/>
                </mxCell>
                <mxCell id="14" value="&lt;div style=&quot;text-align: center;&quot;&gt;&lt;span style=&quot;background-color: transparent; font-size: 7px;&quot;&gt;程序配置&lt;/span&gt;&lt;br&gt;&lt;span style=&quot;font-size: 7px; background-color: transparent;&quot;&gt;1. 文件 config.yaml/toml/ini&lt;/span&gt;&lt;br&gt;&lt;span style=&quot;font-size: 7px; background-color: transparent;&quot;&gt;2. 环境变量: ENV&lt;/span&gt;&lt;br&gt;&lt;span style=&quot;font-size: 7px; background-color: transparent;&quot;&gt;3. 配置中心: appllo/console/nacos&lt;/span&gt;&lt;br&gt;&lt;/div&gt;" style="text;html=1;align=left;verticalAlign=middle;resizable=0;points=[];autosize=1;strokeColor=none;fillColor=none;" vertex="1" parent="1">
                    <mxGeometry x="89" y="381" width="124" height="71" as="geometry"/>
                </mxCell>
                <mxCell id="17" value="8080 HTTP Server" style="rounded=0;whiteSpace=wrap;html=1;" vertex="1" parent="1">
                    <mxGeometry x="124" y="174" width="302" height="35" as="geometry"/>
                </mxCell>
                <mxCell id="18" style="edgeStyle=none;html=1;exitX=0.5;exitY=1;exitDx=0;exitDy=0;entryX=0.305;entryY=0.229;entryDx=0;entryDy=0;entryPerimeter=0;" edge="1" parent="1" source="3" target="17">
                    <mxGeometry relative="1" as="geometry"/>
                </mxCell>
                <mxCell id="19" style="edgeStyle=none;html=1;exitX=0.5;exitY=0;exitDx=0;exitDy=0;entryX=0.659;entryY=0.927;entryDx=0;entryDy=0;entryPerimeter=0;" edge="1" parent="1" source="17" target="3">
                    <mxGeometry relative="1" as="geometry"/>
                </mxCell>
                <mxCell id="20" value="" style="dashed=0;outlineConnect=0;html=1;align=center;labelPosition=center;verticalLabelPosition=bottom;verticalAlign=top;shape=mxgraph.webicons.json;gradientColor=#DFDEDE" vertex="1" parent="1">
                    <mxGeometry x="188" y="68" width="31.4" height="31.4" as="geometry"/>
                </mxCell>
                <mxCell id="21" value="" style="dashed=0;outlineConnect=0;html=1;align=center;labelPosition=center;verticalLabelPosition=bottom;verticalAlign=top;shape=mxgraph.webicons.json;gradientColor=#DFDEDE" vertex="1" parent="1">
                    <mxGeometry x="291" y="71" width="31.4" height="31.4" as="geometry"/>
                </mxCell>
                <mxCell id="23" value="请求" style="text;html=1;align=center;verticalAlign=middle;resizable=0;points=[];autosize=1;strokeColor=none;fillColor=none;" vertex="1" parent="1">
                    <mxGeometry x="181" y="96" width="43" height="27" as="geometry"/>
                </mxCell>
                <mxCell id="26" value="返回接口数据" style="text;html=1;align=center;verticalAlign=middle;resizable=0;points=[];autosize=1;strokeColor=none;fillColor=none;" vertex="1" parent="1">
                    <mxGeometry x="289" y="97" width="91" height="27" as="geometry"/>
                </mxCell>
                <mxCell id="27" value="" style="rounded=0;whiteSpace=wrap;html=1;" vertex="1" parent="1">
                    <mxGeometry x="125" y="232" width="302" height="59" as="geometry"/>
                </mxCell>
                <mxCell id="28" value="" style="rounded=0;whiteSpace=wrap;html=1;" vertex="1" parent="1">
                    <mxGeometry x="120" y="316" width="302" height="59" as="geometry"/>
                </mxCell>
                <mxCell id="29" value="接口层/Restful" style="text;html=1;align=center;verticalAlign=middle;resizable=0;points=[];autosize=1;strokeColor=none;fillColor=none;" vertex="1" parent="1">
                    <mxGeometry x="110" y="208" width="96" height="27" as="geometry"/>
                </mxCell>
                <mxCell id="31" value="业务控制层/controller" style="text;html=1;align=center;verticalAlign=middle;resizable=0;points=[];autosize=1;strokeColor=none;fillColor=none;" vertex="1" parent="1">
                    <mxGeometry x="108" y="293" width="132" height="27" as="geometry"/>
                </mxCell>
                <mxCell id="40" style="edgeStyle=none;html=1;exitX=0;exitY=0.5;exitDx=0;exitDy=0;entryX=0;entryY=0.5;entryDx=0;entryDy=0;" edge="1" parent="1" source="32" target="34">
                    <mxGeometry relative="1" as="geometry">
                        <Array as="points">
                            <mxPoint x="131" y="253"/>
                        </Array>
                    </mxGeometry>
                </mxCell>
                <mxCell id="32" value="Http Request" style="rounded=0;whiteSpace=wrap;html=1;" vertex="1" parent="1">
                    <mxGeometry x="151" y="228" width="77" height="23" as="geometry"/>
                </mxCell>
                <mxCell id="33" value="Http Response" style="rounded=0;whiteSpace=wrap;html=1;" vertex="1" parent="1">
                    <mxGeometry x="313" y="224" width="91" height="25" as="geometry"/>
                </mxCell>
                <mxCell id="34" value="解析用户请求" style="rounded=0;whiteSpace=wrap;html=1;" vertex="1" parent="1">
                    <mxGeometry x="149" y="266" width="84" height="22" as="geometry"/>
                </mxCell>
                <mxCell id="37" value="处理业务逻辑" style="rounded=0;whiteSpace=wrap;html=1;" vertex="1" parent="1">
                    <mxGeometry x="233.4" y="266" width="84" height="22" as="geometry"/>
                </mxCell>
                <mxCell id="41" style="edgeStyle=none;html=1;exitX=1;exitY=0.5;exitDx=0;exitDy=0;entryX=1;entryY=0.5;entryDx=0;entryDy=0;" edge="1" parent="1" source="38" target="33">
                    <mxGeometry relative="1" as="geometry">
                        <Array as="points">
                            <mxPoint x="423" y="261"/>
                        </Array>
                    </mxGeometry>
                </mxCell>
                <mxCell id="38" value="返回处理结果" style="rounded=0;whiteSpace=wrap;html=1;" vertex="1" parent="1">
                    <mxGeometry x="318" y="266" width="84" height="22" as="geometry"/>
                </mxCell>
                <mxCell id="42" value="model" style="rounded=0;whiteSpace=wrap;html=1;" vertex="1" parent="1">
                    <mxGeometry x="129" y="328" width="56" height="38" as="geometry"/>
                </mxCell>
                <mxCell id="44" style="edgeStyle=none;html=1;exitX=0.5;exitY=0;exitDx=0;exitDy=0;entryX=0.5;entryY=1;entryDx=0;entryDy=0;" edge="1" parent="1" source="43" target="27">
                    <mxGeometry relative="1" as="geometry">
                        <Array as="points">
                            <mxPoint x="367" y="298"/>
                            <mxPoint x="276" y="309"/>
                        </Array>
                    </mxGeometry>
                </mxCell>
                <mxCell id="52" style="edgeStyle=none;html=1;exitX=0.5;exitY=1;exitDx=0;exitDy=0;" edge="1" parent="1" source="43" target="49">
                    <mxGeometry relative="1" as="geometry"/>
                </mxCell>
                <mxCell id="43" value="controller" style="rounded=0;whiteSpace=wrap;html=1;" vertex="1" parent="1">
                    <mxGeometry x="315" y="328" width="99" height="36" as="geometry"/>
                </mxCell>
                <mxCell id="47" style="edgeStyle=none;html=1;entryX=1;entryY=0.5;entryDx=0;entryDy=0;" edge="1" parent="1" source="45" target="42">
                    <mxGeometry relative="1" as="geometry"/>
                </mxCell>
                <mxCell id="45" value="对象转行&lt;br&gt;gorm" style="text;html=1;align=center;verticalAlign=middle;resizable=0;points=[];autosize=1;strokeColor=none;fillColor=none;fontSize=8;" vertex="1" parent="1">
                    <mxGeometry x="225" y="331" width="51" height="32" as="geometry"/>
                </mxCell>
                <mxCell id="48" value="" style="endArrow=none;html=1;entryX=0;entryY=0.5;entryDx=0;entryDy=0;" edge="1" parent="1" source="45" target="43">
                    <mxGeometry width="50" height="50" relative="1" as="geometry">
                        <mxPoint x="227" y="410" as="sourcePoint"/>
                        <mxPoint x="277" y="360" as="targetPoint"/>
                    </mxGeometry>
                </mxCell>
                <mxCell id="49" value="" style="outlineConnect=0;dashed=0;verticalLabelPosition=bottom;verticalAlign=top;align=center;html=1;shape=mxgraph.aws3.mysql_db_instance_2;fillColor=#2E73B8;gradientColor=none;" vertex="1" parent="1">
                    <mxGeometry x="317.4" y="400" width="97" height="58" as="geometry"/>
                </mxCell>
                <mxCell id="53" value="DB/Mysql" style="text;html=1;align=center;verticalAlign=middle;resizable=0;points=[];autosize=1;strokeColor=none;fillColor=none;" vertex="1" parent="1">
                    <mxGeometry x="410" y="403" width="70" height="27" as="geometry"/>
                </mxCell>
            </root>
        </mxGraphModel>
    </diagram>
</mxfile>